# xmcd CD database file
#
# Track frame offsets:
#	150
#	20732
#	35647
#	56835
#	75902
#
# Disc length: 1284 seconds
#
# Revision: 5
# Processed by: cddbd v1.5.2PL0 Copyright (c) Steve Scherf et al.
# Submitted via: jetAudio 7
#
DISCID=38050205
DTITLE=Tyler - Majesty
DYEAR=2002
DGENRE=Rock
TTITLE0=Two Timing feat.BIG-O and DABO
TTITLE1=GIRLIE!
TTITLE2=chance time
TTITLE3=urge
TTITLE4=Never be the same again
EXTD=
EXTT0=
EXTT1=
EXTT2=
EXTT3=
EXTT4=
PLAYORDER=
